<?xml version="1.0" encoding="utf-8"?>
<!-- Generator: Adobe Illustrator 20.0.0, SVG Export Plug-In . SVG Version: 6.00 Build 0)  -->
<svg version="1.1" id="Layer_1" xmlns="http://www.w3.org/2000/svg" xmlns:xlink="http://www.w3.org/1999/xlink" x="0px" y="0px"
	 viewBox="0 0 293.1 54.6" style="enable-background:new 0 0 293.1 54.6;" xml:space="preserve" width="221px" height="38px">
<style type="text/css">
	.st0{fill:#FFFFFF;}
</style>
<path class="st0" d="M167.9,0c-15.1,0-27.3,12.2-27.3,27.3c0,15.1,12.2,27.3,27.3,27.3s27.3-12.2,27.3-27.3
	C195.2,12.2,183,0,167.9,0z M181.6,42.6c0,1.1-0.9,2-2,2h-22c-1.1,0-2-0.9-2-2v-31c0-1.1,0.9-2,2-2h11.7c0,0,0,10.2,0,10.2
	c0,1.1,0.9,2,2,2c0,0,10.2,0,10.2,0V42.6z M171.5,19.7V9.6l10.1,10.1H171.5z"/>
<g>
	<path class="st0" d="M8.7,49.5c4.7,0,8.4-2.2,8.4-7.6v-2.6c0-1,0.2-1.8,0.2-1.8h-0.1c-1.3,2.7-3.7,4.5-7.4,4.5
		C4,42.1,0,37.6,0,30.8s3.7-11.2,9.5-11.2c6.3,0,7.7,4.3,7.7,4.3h0.1c0,0-0.1-0.3-0.1-0.8v-2.9h1.8V42c0,6.7-4.8,9.4-10.1,9.4
		c-2.4,0-4.8-0.6-6.9-1.7L2.8,48C2.8,48,5.5,49.5,8.7,49.5z M17.1,30.8c0-7.1-3.3-9.4-7.7-9.4c-4.7,0-7.5,3.4-7.5,9.4
		c0,5.9,3.3,9.6,8,9.6C13.8,40.3,17.1,37.9,17.1,30.8z"/>
	<path class="st0" d="M26.5,11.3h1.8v25.8c0,3.1,1.6,3.4,2.6,3.4c0.4,0,0.7,0,0.7,0v1.7c0,0-0.4,0.1-0.8,0.1c-1.3,0-4.3-0.5-4.3-4.6
		V11.3z"/>
	<path class="st0" d="M46.6,19.6c6.3,0,11.4,5,11.4,11.4c0,6.6-5.1,11.7-11.4,11.7S35.2,37.5,35.2,31C35.2,24.5,40.3,19.6,46.6,19.6
		z M46.6,40.8c5.2,0,9.5-4.3,9.5-9.9c0-5.5-4.2-9.6-9.5-9.6c-5.2,0-9.5,4.1-9.5,9.6C37.1,36.6,41.3,40.8,46.6,40.8z"/>
	<path class="st0" d="M64.1,11.3H66v11.4c0,1-0.2,1.8-0.2,1.8h0.1c0,0,1.9-5,8-5c5.9,0,9.5,4.7,9.5,11.5c0,7-4.1,11.5-9.9,11.5
		c-5.5,0-7.6-5-7.6-5h-0.1c0,0,0.2,0.8,0.2,1.9v2.5h-1.8V11.3z M73.6,40.8c4.3,0,7.8-3.6,7.8-9.7c0-5.9-3.2-9.7-7.7-9.7
		c-4,0-7.8,2.9-7.8,9.8C65.9,36,68.4,40.8,73.6,40.8z"/>
	<path class="st0" d="M89.3,20.1h1.8v13.3c0,3.8,0.5,7.4,5.4,7.4c5.5,0,9-4.8,9-10V20.1h1.8v22h-1.8v-3.9c0-1,0.2-1.8,0.2-1.8h-0.1
		c-0.7,2.1-3.8,6.2-9.1,6.2c-5.4,0-7.3-3-7.3-8.6C89.3,34.1,89.3,20.1,89.3,20.1z"/>
	<path class="st0" d="M114.5,38.1c0,0,2.5,2.8,6.8,2.8c2.7,0,5.1-1.4,5.1-4.1c0-5.6-12.1-4-12.1-11.2c0-3.9,3.3-5.9,7-5.9
		c4.5,0,6.5,2.4,6.5,2.4l-1.1,1.5c0,0-1.8-2.1-5.5-2.1c-2.5,0-5,1.1-5,4c0,5.7,12.1,4,12.1,11.3c0,3.5-3,5.9-7,5.9
		c-5.3,0-8-3.2-8-3.2L114.5,38.1z"/>
	<path class="st0" d="M215.6,19.3c5.2,0,6.9,3.5,6.9,3.5h0.1c0,0-0.1-0.7-0.1-1.5V11h4.3v31.1h-4V40c0-0.9,0-1.5,0-1.5h-0.1
		c0,0-1.8,4.1-7.3,4.1c-6,0-9.8-4.8-9.8-11.7C205.6,23.9,209.7,19.3,215.6,19.3z M216.2,38.9c3.3,0,6.4-2.3,6.4-8
		c0-4-2.1-7.9-6.3-7.9c-3.5,0-6.4,2.9-6.4,8C209.9,35.8,212.5,38.9,216.2,38.9z"/>
	<path class="st0" d="M241.7,19.3c6.6,0,12,4.9,12,11.6c0,6.8-5.4,11.7-12,11.7c-6.6,0-12-4.9-12-11.7
		C229.6,24.2,235,19.3,241.7,19.3z M241.7,38.9c4.2,0,7.7-3.3,7.7-8c0-4.6-3.4-7.9-7.7-7.9c-4.2,0-7.7,3.3-7.7,7.9
		C234,35.6,237.5,38.9,241.7,38.9z"/>
	<path class="st0" d="M266.9,19.3c5.6,0,8.4,3.3,8.4,3.3l-2,3c0,0-2.4-2.6-6.2-2.6c-4.5,0-7.7,3.3-7.7,7.9c0,4.5,3.3,8,7.9,8
		c4.1,0,6.9-3,6.9-3l1.7,3.1c0,0-3.1,3.6-8.9,3.6c-7,0-11.9-5-11.9-11.7C255,24.4,259.9,19.3,266.9,19.3z"/>
	<path class="st0" d="M278.7,36.3c0,0,2.5,2.6,6.4,2.6c1.8,0,3.7-1,3.7-2.8c0-4.1-11.4-3.3-11.4-10.5c0-4,3.6-6.3,8.1-6.3
		c4.9,0,7.2,2.5,7.2,2.5l-1.7,3.2c0,0-2-2-5.5-2c-1.8,0-3.7,0.8-3.7,2.7c0,4,11.4,3.1,11.4,10.4c0,3.7-3.2,6.5-8.1,6.5
		c-5.5,0-8.5-3.3-8.5-3.3L278.7,36.3z"/>
</g>
</svg>
